<?xml version="1.0" standalone="no"?>
<!DOCTYPE svg PUBLIC "-//W3C//DTD SVG 20010904//EN"
 "http://www.w3.org/TR/2001/REC-SVG-20010904/DTD/svg10.dtd">
<svg version="1.0" xmlns="http://www.w3.org/2000/svg"
 width="5660.000000pt" height="1848.000000pt" viewBox="0 0 5660.000000 1848.000000"
 preserveAspectRatio="xMidYMid meet">

<g transform="translate(0.000000,1848.000000) scale(0.100000,-0.100000)"
fill="#000000" stroke="none">
<path d="M11095 13394 c-28 -30 -61 -68 -75 -83 -14 -15 -33 -36 -42 -47 -9
-10 -22 -23 -27 -29 -40 -39 -141 -150 -141 -155 0 -3 -13 -17 -30 -30 -16
-14 -29 -29 -30 -33 0 -5 -24 -32 -52 -60 -48 -47 -78 -80 -203 -222 -19 -22
-35 -43 -35 -47 0 -5 -7 -8 -15 -8 -8 0 -15 -4 -15 -9 0 -5 -17 -26 -37 -48
-48 -50 -127 -136 -220 -239 -39 -43 -100 -109 -135 -145 -35 -37 -92 -99
-128 -139 -36 -40 -80 -89 -97 -108 -18 -19 -33 -39 -33 -43 0 -5 -7 -9 -15
-9 -8 0 -19 -10 -26 -21 -6 -12 -38 -49 -70 -82 -32 -33 -59 -63 -59 -66 0 -4
-13 -18 -30 -31 -16 -14 -29 -28 -30 -32 0 -4 -21 -30 -47 -56 -27 -27 -77
-82 -113 -122 -36 -40 -87 -96 -115 -125 -27 -29 -79 -86 -115 -126 -36 -40
-76 -84 -88 -98 -13 -14 -56 -62 -95 -106 -40 -43 -89 -96 -109 -117 -21 -20
-38 -39 -38 -42 0 -2 -16 -20 -36 -40 l-36 -36 -37 39 c-20 21 -52 56 -71 78
-58 66 -171 189 -237 260 -35 36 -63 69 -63 73 0 4 -16 20 -35 36 -19 15 -35
34 -35 41 0 7 -7 13 -15 13 -8 0 -15 3 -15 8 0 4 -17 25 -37 48 -21 22 -72 78
-113 124 -41 45 -88 97 -105 115 -16 17 -59 64 -95 104 -36 40 -87 97 -115
127 -86 92 -213 232 -299 329 -52 58 -130 135 -138 135 -4 0 -8 5 -8 11 0 7
-15 27 -32 44 -47 47 -152 164 -161 181 -4 8 -15 14 -22 14 -8 0 -15 5 -15 11
0 7 -13 25 -30 41 -16 15 -30 30 -30 33 0 2 -17 21 -37 43 -21 21 -72 75 -113
121 -41 45 -88 97 -105 115 -16 17 -57 62 -90 99 -97 111 -167 188 -207 228
-21 21 -38 43 -38 49 0 5 -6 10 -12 10 -7 0 -24 16 -37 35 -30 44 -51 44 -90
0 -17 -19 -35 -35 -41 -35 -5 0 -10 -5 -10 -11 0 -7 -29 -40 -65 -75 -36 -35
-65 -67 -65 -71 0 -5 -16 -19 -35 -32 -19 -13 -35 -29 -35 -35 0 -6 -14 -20
-30 -31 -16 -11 -30 -25 -30 -31 0 -6 -16 -23 -35 -38 -19 -16 -35 -34 -35
-42 0 -8 -5 -14 -11 -14 -13 0 -79 -67 -79 -80 0 -6 -4 -10 -9 -10 -9 0 -61
-46 -61 -54 0 -2 -29 -33 -65 -69 -36 -36 -65 -70 -65 -75 0 -6 -9 -13 -20
-17 -11 -3 -27 -19 -37 -36 -9 -16 -20 -29 -24 -29 -8 0 -29 -21 -214 -214
-71 -75 -194 -202 -273 -282 -78 -81 -142 -148 -142 -151 0 -8 -25 -29 -48
-42 -12 -6 -22 -16 -22 -21 0 -4 -29 -38 -65 -73 -36 -36 -65 -69 -65 -73 0
-5 -14 -18 -30 -29 -16 -11 -30 -26 -30 -32 0 -7 -7 -13 -15 -13 -8 0 -15 -6
-15 -12 0 -7 -16 -24 -35 -38 -19 -14 -35 -28 -35 -32 0 -4 -14 -21 -30 -36
-16 -16 -30 -34 -30 -41 0 -6 -6 -11 -13 -11 -12 0 -57 -43 -57 -54 0 -8 -83
-86 -91 -86 -5 0 -9 -4 -9 -8 0 -8 -125 -141 -298 -315 l-97 -99 23 -18 c12
-10 22 -21 22 -24 0 -3 10 -16 23 -29 12 -14 33 -37 46 -53 14 -16 78 -91 143
-166 65 -75 118 -140 118 -144 0 -3 20 -25 45 -48 25 -24 45 -46 45 -51 0 -4
8 -13 17 -20 16 -12 30 0 121 93 136 141 188 195 201 207 5 6 67 70 138 143
226 235 306 318 401 415 50 52 92 100 92 106 0 6 4 11 10 11 5 0 39 30 74 68
36 37 113 116 171 176 58 60 105 113 105 118 0 4 4 8 9 8 8 0 91 78 91 86 0 4
182 193 211 219 13 12 24 24 175 180 l120 125 51 -57 c28 -32 68 -76 89 -99
22 -22 66 -71 99 -109 33 -37 75 -83 93 -103 17 -19 32 -39 32 -43 0 -5 7 -9
15 -9 8 0 19 -10 26 -21 6 -12 38 -49 70 -82 32 -33 59 -63 59 -66 0 -4 13
-18 30 -31 16 -14 29 -31 30 -37 0 -7 6 -13 14 -13 7 0 16 -9 19 -19 5 -20
-39 -77 -125 -162 -21 -20 -38 -39 -38 -41 0 -10 -80 -88 -90 -88 -5 0 -10 -6
-10 -14 0 -8 -13 -26 -30 -39 -16 -14 -30 -30 -30 -36 0 -6 -16 -23 -35 -38
-19 -15 -35 -32 -35 -36 0 -5 -13 -20 -30 -34 -16 -13 -30 -31 -30 -39 0 -8
-6 -14 -14 -14 -8 0 -16 -4 -18 -8 -3 -10 -93 -112 -178 -202 -30 -33 -71 -78
-90 -100 -19 -22 -55 -62 -80 -89 -25 -26 -79 -85 -120 -132 -83 -92 -118
-131 -215 -232 -36 -37 -65 -71 -65 -74 0 -3 -16 -21 -35 -40 -19 -19 -35 -38
-35 -43 0 -6 -7 -10 -15 -10 -8 0 -15 -4 -15 -9 0 -9 -84 -103 -157 -176 -18
-18 -33 -34 -33 -36 0 -3 -26 -33 -59 -67 -32 -34 -81 -87 -107 -117 -27 -31
-68 -77 -91 -103 -24 -26 -43 -52 -43 -58 0 -6 15 -25 33 -41 17 -17 48 -50
67 -72 19 -23 49 -56 65 -74 17 -18 68 -75 115 -127 47 -52 106 -116 132 -143
27 -27 48 -51 48 -54 0 -4 8 -14 18 -23 16 -17 19 -15 65 32 26 28 47 53 47
56 0 3 23 27 50 53 28 26 50 50 50 54 0 3 14 18 30 32 17 13 30 31 30 39 0 8
7 14 15 14 8 0 15 3 15 8 0 4 23 31 50 60 28 30 50 58 50 63 0 5 7 9 15 9 8 0
15 4 15 9 0 5 28 39 63 76 34 36 78 84 97 106 19 22 49 54 65 72 34 36 152
167 235 260 30 33 72 78 93 98 20 21 37 42 37 48 0 6 7 11 15 11 8 0 15 4 15
9 0 5 23 33 50 62 28 29 50 56 50 61 0 4 7 8 15 8 8 0 15 7 15 15 0 8 16 27
35 42 19 15 35 31 35 36 0 4 20 27 45 50 25 24 45 46 45 49 0 2 21 27 48 55
26 27 79 84 117 127 39 43 84 93 100 111 17 17 79 86 140 153 60 67 112 122
115 122 3 0 28 -26 55 -56 28 -31 61 -69 75 -84 110 -121 156 -174 163 -186 4
-8 15 -14 22 -14 8 0 15 -5 15 -11 0 -7 14 -26 30 -43 72 -75 130 -140 130
-148 0 -4 7 -8 15 -8 8 0 15 -5 15 -11 0 -6 21 -33 48 -59 65 -66 112 -120
112 -130 0 -5 8 -11 18 -14 10 -3 25 -19 34 -34 16 -27 16 -29 0 -44 -9 -8
-44 -46 -77 -83 -33 -37 -73 -82 -90 -99 -16 -18 -64 -70 -105 -116 -41 -46
-103 -113 -137 -148 -35 -35 -63 -67 -63 -70 0 -4 -13 -18 -30 -32 -16 -14
-30 -29 -30 -35 0 -5 -16 -23 -35 -38 -19 -15 -35 -34 -35 -42 0 -8 -6 -15
-12 -15 -7 0 -22 -14 -33 -30 -11 -16 -25 -30 -31 -30 -6 0 -16 -11 -22 -24
-6 -14 -23 -32 -37 -42 -14 -9 -25 -21 -25 -28 0 -6 -14 -20 -30 -31 -16 -11
-30 -25 -30 -30 0 -6 -16 -23 -35 -39 -19 -16 -35 -35 -35 -43 0 -7 -7 -13
-15 -13 -8 0 -15 -4 -15 -9 0 -5 -21 -32 -47 -58 -27 -27 -71 -76 -100 -109
-28 -32 -73 -82 -100 -111 -26 -28 -75 -81 -108 -118 -123 -137 -181 -200
-222 -242 -24 -24 -43 -48 -43 -52 0 -4 -13 -18 -30 -31 -16 -12 -32 -31 -35
-41 -4 -11 -13 -19 -21 -19 -8 0 -14 -4 -14 -8 0 -5 -20 -30 -44 -55 -24 -26
-46 -54 -50 -62 -3 -8 -12 -15 -21 -15 -8 0 -15 -4 -15 -10 0 -5 -15 -25 -32
-43 -18 -19 -48 -51 -67 -71 l-34 -37 34 -33 c19 -18 68 -71 109 -117 41 -46
85 -93 96 -105 12 -12 54 -60 94 -106 40 -46 86 -95 102 -109 15 -14 28 -31
28 -37 0 -7 7 -12 15 -12 8 0 15 -3 15 -8 0 -7 91 -110 163 -185 20 -21 37
-43 37 -48 0 -5 7 -9 15 -9 8 0 15 -6 15 -12 1 -7 14 -24 30 -38 17 -13 30
-27 30 -31 0 -4 17 -24 38 -46 78 -82 199 -213 257 -279 33 -37 74 -82 90 -99
17 -17 62 -67 100 -110 100 -112 132 -147 203 -222 34 -37 62 -69 62 -72 0 -4
14 -17 30 -31 17 -14 30 -30 30 -37 0 -7 6 -13 14 -13 7 0 21 -11 30 -24 8
-14 40 -51 71 -82 30 -32 55 -59 55 -61 0 -2 14 -17 30 -33 17 -16 30 -32 30
-35 0 -3 21 -26 48 -53 26 -26 76 -80 112 -120 36 -41 88 -98 115 -128 65 -70
104 -113 195 -214 41 -46 89 -99 107 -118 l32 -35 23 26 c13 14 52 58 88 98
36 40 86 94 113 122 26 27 47 52 47 56 1 3 14 17 30 31 17 13 30 27 30 30 0 4
28 36 63 73 34 36 78 83 97 104 19 21 78 85 130 143 52 57 111 122 130 143 19
22 45 51 58 64 12 13 30 35 38 49 9 13 23 24 30 24 8 0 14 4 14 9 0 6 29 40
65 77 36 37 65 70 65 74 0 3 13 17 30 30 16 14 29 29 30 33 0 5 24 32 53 60
47 47 77 80 202 222 19 22 35 43 35 48 0 4 7 7 15 7 8 0 15 4 15 9 0 5 17 26
38 48 20 22 62 67 92 100 30 34 87 96 127 139 39 44 81 90 92 103 42 49 167
186 204 223 20 21 37 43 37 48 0 6 7 10 15 10 8 0 15 4 15 9 0 5 29 39 65 76
36 37 65 71 65 76 0 4 16 21 35 36 19 15 35 31 35 35 0 4 19 26 43 51 67 69
157 170 157 177 0 4 -16 24 -35 46 -19 21 -35 42 -35 47 0 4 -7 7 -15 7 -8 0
-15 4 -15 9 0 5 -17 27 -37 49 -21 22 -51 55 -68 74 -73 83 -204 226 -247 272
-27 27 -48 51 -48 53 0 3 -15 19 -32 37 -52 50 -152 164 -156 176 -2 5 -10 10
-18 10 -8 0 -14 6 -14 13 0 8 -16 27 -35 43 -19 16 -35 32 -35 36 0 4 -28 36
-62 72 -35 36 -83 88 -108 115 -66 72 -178 194 -190 206 -6 6 -19 18 -28 29
-9 10 -42 45 -72 78 -104 113 -115 125 -150 164 -70 79 -226 250 -262 288 -21
21 -38 41 -38 45 0 3 -13 17 -30 31 -16 14 -30 28 -30 33 0 10 -81 87 -92 87
-4 0 -8 6 -8 13 0 8 -11 24 -25 37 -23 21 -24 26 -11 45 8 12 27 35 43 51 45
47 206 224 253 279 23 28 56 62 71 76 16 14 29 29 29 32 0 4 24 31 53 60 59
61 177 189 177 194 0 1 20 23 45 47 25 25 45 50 45 56 0 20 26 9 54 -22 65
-75 144 -163 189 -210 26 -27 47 -51 47 -53 0 -3 101 -112 153 -165 13 -14 56
-61 94 -105 38 -44 87 -99 109 -122 22 -23 66 -72 99 -110 33 -37 77 -84 98
-104 20 -21 37 -42 37 -48 0 -6 6 -11 13 -11 6 0 23 -16 36 -35 13 -19 30 -35
37 -35 8 0 14 -6 14 -12 1 -17 35 -58 49 -58 6 0 11 -7 11 -15 0 -8 16 -27 35
-42 19 -15 35 -31 35 -36 0 -4 20 -27 45 -50 25 -24 45 -46 45 -49 0 -3 24
-30 53 -60 48 -50 156 -168 217 -236 110 -123 202 -225 242 -266 27 -27 48
-51 48 -54 0 -2 15 -19 33 -37 17 -17 39 -42 48 -53 15 -22 16 -22 35 -2 10
10 37 40 59 66 22 26 57 64 78 84 20 20 37 42 37 48 0 7 7 12 15 12 8 0 15 4
15 8 0 8 58 73 130 148 16 17 30 36 30 43 0 6 5 11 11 11 12 0 69 59 94 96 17
27 20 22 -55 104 -27 30 -50 58 -50 63 0 4 -7 7 -15 7 -8 0 -15 6 -15 13 0 7
-13 24 -30 37 -16 14 -29 31 -30 38 0 6 -7 12 -15 12 -8 0 -15 4 -15 10 0 5
-16 24 -35 43 -19 19 -35 36 -35 39 0 2 -24 30 -52 60 -29 31 -82 88 -118 127
-36 40 -78 86 -95 104 -43 47 -184 203 -241 267 -27 30 -64 69 -81 87 -18 19
-33 37 -33 42 0 5 -11 16 -25 25 -14 10 -31 28 -37 42 -6 13 -17 24 -25 24 -7
0 -13 4 -13 8 0 5 -29 39 -65 77 -36 37 -65 69 -65 71 0 2 -15 18 -32 37 -18
19 -67 71 -108 116 -41 46 -88 98 -105 116 -16 18 -59 64 -95 104 -36 39 -87
96 -115 126 -27 30 -68 74 -89 97 -22 24 -61 66 -87 94 l-49 52 53 57 c28 31
80 86 115 122 34 37 62 69 62 73 0 4 13 18 28 31 16 13 31 32 35 42 3 9 13 17
22 17 8 0 15 3 15 8 0 4 20 29 45 57 25 27 45 53 45 57 0 4 9 10 20 13 11 3
20 11 20 17 0 6 14 24 30 40 17 15 30 30 30 32 0 2 28 33 62 69 l62 65 83 -86
c46 -47 83 -89 83 -94 0 -4 4 -8 10 -8 9 0 60 -47 60 -56 0 -2 29 -33 65 -69
36 -35 65 -68 65 -74 0 -6 6 -11 13 -11 6 0 21 -12 32 -26 11 -14 31 -35 44
-47 13 -12 29 -28 35 -35 6 -7 63 -66 126 -131 224 -231 365 -380 368 -390 2
-6 10 -11 17 -11 8 0 18 -7 23 -15 9 -17 231 -250 425 -446 64 -66 117 -122
117 -124 0 -9 36 -41 53 -48 9 -3 17 -11 17 -17 0 -5 29 -39 65 -75 36 -35 65
-69 65 -75 0 -5 7 -10 15 -10 8 0 15 -7 15 -15 0 -8 5 -15 10 -15 12 0 50 -37
50 -48 0 -4 10 -16 22 -26 21 -18 22 -18 41 5 10 13 36 43 58 66 21 23 39 45
39 50 0 4 16 21 35 36 19 15 35 34 35 42 0 8 7 15 15 15 8 0 15 7 15 15 0 8 4
15 9 15 5 0 12 9 16 19 3 11 14 22 23 25 10 3 25 18 34 33 9 16 41 55 70 89
93 106 118 137 118 146 0 7 -113 128 -229 243 -6 6 -66 67 -133 137 -113 117
-150 155 -178 183 -53 51 -180 191 -180 197 0 4 -6 8 -13 8 -7 0 -21 12 -32
26 -11 15 -64 71 -117 125 -54 55 -98 104 -98 109 0 6 -4 10 -9 10 -6 0 -33
24 -60 53 -28 28 -98 101 -156 161 -58 60 -105 112 -105 115 0 3 -14 15 -30
26 -16 11 -30 23 -30 27 0 4 -46 55 -102 112 -57 58 -179 184 -273 282 -93 97
-179 184 -189 193 -10 9 -26 24 -35 34 -9 10 -46 50 -83 89 -38 38 -68 74 -68
79 0 5 -6 9 -13 9 -7 0 -19 10 -27 21 -8 12 -21 27 -28 33 -7 6 -21 19 -30 29
-29 32 -183 187 -185 187 -2 0 -25 -25 -52 -56z m-2312 -3694 c9 -11 17 -24
17 -28 0 -4 16 -20 35 -35 19 -15 35 -34 35 -42 0 -8 5 -15 12 -15 11 0 148
-139 148 -150 0 -3 13 -17 30 -30 16 -14 29 -30 30 -35 0 -6 16 -23 35 -39 19
-16 35 -35 35 -43 0 -7 7 -13 15 -13 8 0 15 -4 15 -9 0 -5 21 -32 48 -59 26
-27 81 -86 122 -132 41 -45 98 -107 125 -136 28 -30 66 -72 85 -95 19 -23 49
-56 65 -74 17 -17 64 -68 105 -114 41 -45 103 -112 138 -148 34 -35 62 -67 62
-70 0 -4 13 -18 28 -32 16 -14 32 -34 35 -43 4 -10 13 -18 22 -18 8 0 15 -3
15 -7 0 -5 20 -30 45 -58 25 -27 45 -53 45 -57 0 -5 7 -8 15 -8 31 0 28 -31
-6 -64 -19 -18 -57 -59 -86 -92 -28 -32 -73 -83 -100 -111 -26 -29 -75 -83
-108 -120 -33 -37 -77 -84 -97 -104 -21 -21 -38 -42 -38 -48 0 -6 -7 -11 -15
-11 -8 0 -15 -3 -15 -8 0 -7 -93 -114 -162 -186 -21 -21 -38 -40 -38 -43 0 -2
-20 -24 -45 -47 -25 -24 -45 -46 -45 -49 0 -2 -17 -22 -37 -44 -42 -43 -191
-204 -238 -257 -16 -18 -58 -64 -91 -102 -34 -38 -92 -100 -128 -139 -36 -38
-66 -72 -66 -74 0 -2 -16 -20 -36 -39 l-37 -36 -63 70 c-35 38 -84 91 -109
117 -25 27 -45 50 -45 51 0 2 -24 28 -52 59 -106 113 -138 150 -138 158 0 5
-7 9 -15 9 -9 0 -18 7 -21 14 -3 8 -34 46 -69 83 -35 37 -76 83 -92 100 -15
18 -48 55 -73 81 -51 56 -198 217 -250 275 -19 21 -56 60 -81 87 -25 26 -78
85 -119 131 -40 46 -86 96 -101 111 -16 15 -29 32 -29 37 0 6 -7 11 -15 11 -8
0 -15 5 -15 10 0 6 -13 24 -30 40 -16 16 -30 32 -30 35 0 3 -16 19 -35 36
l-34 31 57 58 c57 58 168 178 236 255 20 22 36 43 36 48 0 4 7 7 15 7 8 0 15
6 15 13 0 7 13 24 30 37 16 14 29 31 30 38 0 6 7 12 15 12 8 0 15 6 15 13 0 6
16 25 35 41 19 16 35 33 35 38 0 5 14 21 30 35 17 13 30 31 30 39 0 8 6 14 14
14 7 0 24 16 37 35 13 19 30 35 37 35 6 0 12 5 12 12 0 6 13 23 28 37 16 14
62 64 103 111 41 47 83 94 94 106 11 11 54 58 95 104 41 47 90 100 108 120
126 133 162 173 162 181 0 5 6 9 14 9 8 0 16 4 18 10 4 12 111 130 118 130 3
0 13 -9 23 -20z"/>
<path d="M23823 11812 l-453 -26 0 -112 0 -111 33 -7 c143 -27 238 -87 275
-173 48 -112 47 -78 47 -1928 0 -1857 2 -1790 -47 -1890 -41 -81 -119 -140
-222 -166 l-46 -11 0 -109 0 -109 795 0 795 0 0 109 0 109 -32 7 c-54 12 -141
54 -171 83 -41 39 -66 84 -88 155 -33 103 -38 436 -39 2385 l0 1822 -197 -1
c-109 -1 -402 -13 -650 -27z"/>
<path d="M46653 11812 l-453 -26 0 -112 0 -111 33 -7 c143 -27 238 -87 275
-173 48 -112 47 -78 47 -1928 0 -1857 2 -1790 -47 -1890 -41 -81 -119 -140
-222 -166 l-46 -11 0 -109 0 -109 795 0 795 0 0 109 0 109 -32 7 c-54 12 -141
54 -171 83 -41 39 -66 84 -88 155 -33 103 -38 436 -39 2385 l0 1822 -197 -1
c-109 -1 -402 -13 -650 -27z"/>
<path d="M50633 11812 l-453 -26 0 -111 0 -112 48 -11 c76 -17 160 -52 191
-78 44 -36 77 -101 97 -184 14 -63 18 -142 21 -502 3 -236 2 -428 -2 -428 -4
0 -41 9 -83 19 -189 48 -249 54 -507 55 -202 1 -270 -3 -355 -18 -708 -124
-1102 -571 -1196 -1353 -20 -174 -15 -625 10 -788 100 -660 358 -1006 839
-1126 108 -27 368 -37 470 -19 161 28 367 115 523 221 80 54 231 178 278 228
17 17 40 31 53 31 28 0 28 -8 10 -287 l-12 -183 255 0 c140 0 427 5 638 12
l382 12 0 113 c0 92 -3 113 -14 113 -8 0 -51 11 -94 25 -123 39 -186 102 -219
220 -26 90 -32 528 -32 2388 l-1 1817 -197 -1 c-109 -1 -402 -13 -650 -27z
m-470 -1732 c208 -59 322 -220 366 -517 7 -45 11 -319 11 -745 0 -572 -2 -683
-15 -733 -48 -187 -195 -348 -385 -421 -69 -27 -85 -29 -200 -28 -124 0 -126
0 -195 36 -188 97 -291 305 -352 713 -26 175 -26 782 0 933 76 441 211 669
449 758 84 31 223 33 321 4z"/>
<path d="M15250 11507 l0 -113 58 -18 c115 -37 189 -86 228 -151 55 -95 54
-41 54 -1824 0 -1169 -3 -1663 -11 -1710 -25 -148 -85 -220 -226 -270 -46 -17
-88 -31 -94 -31 -5 0 -9 -47 -9 -110 l0 -110 903 0 c1058 0 1229 9 1547 76
727 155 1218 572 1442 1224 111 325 154 649 145 1098 -9 468 -71 762 -227
1072 -213 425 -616 730 -1145 870 -353 93 -632 109 -1867 110 l-798 0 0 -113z
m1945 -296 c601 -127 942 -583 1035 -1386 36 -312 24 -792 -29 -1090 -104
-590 -361 -965 -762 -1110 -156 -56 -242 -67 -551 -72 l-288 -5 0 1847 0 1848
248 -6 c198 -4 267 -9 347 -26z"/>
<path d="M32800 11507 l0 -114 43 -12 c119 -36 204 -113 266 -245 64 -134 -7
122 792 -2854 l304 -1132 410 2 409 3 431 1510 c237 831 433 1515 435 1522 3
6 169 -673 370 -1510 l366 -1522 390 -3 389 -2 589 1722 c642 1878 699 2040
755 2163 88 189 202 306 339 346 l42 12 0 114 0 113 -675 0 -675 0 0 -115 0
-115 28 0 c15 0 48 -7 73 -14 186 -57 246 -171 220 -418 -7 -61 -30 -182 -52
-267 -63 -251 -733 -2394 -741 -2374 -4 10 -174 749 -378 1643 -204 894 -373
1633 -376 1643 -5 16 -31 17 -372 17 l-367 0 -465 -1660 c-300 -1069 -468
-1653 -473 -1642 -12 27 -594 2377 -617 2492 -26 128 -37 319 -21 376 26 97
122 171 254 196 l67 13 0 112 0 113 -880 0 -880 0 0 -113z"/>
<path d="M25926 11168 c-2 -24 -12 -114 -21 -201 -41 -418 -134 -616 -327
-701 -57 -25 -171 -56 -206 -56 -21 0 -22 -4 -22 -110 l0 -110 205 0 205 0 0
-882 c0 -486 5 -950 10 -1033 14 -200 43 -347 95 -466 106 -245 271 -383 545
-455 97 -26 120 -28 310 -28 182 -1 215 2 295 22 180 46 297 98 464 209 111
74 256 192 255 208 -1 9 -144 207 -191 264 -2 3 -20 -10 -41 -27 -59 -49 -168
-113 -230 -135 -37 -13 -95 -21 -167 -24 -99 -5 -116 -3 -163 17 -125 54 -194
193 -223 455 -6 61 -13 444 -16 988 l-6 887 467 0 466 0 0 205 0 205 -465 0
-465 0 0 405 0 405 -384 0 -385 0 -5 -42z"/>
<path d="M21305 10434 c-309 -46 -511 -115 -705 -241 -335 -218 -549 -571
-631 -1038 -26 -145 -36 -514 -20 -681 72 -719 401 -1150 990 -1299 155 -39
296 -55 503 -55 413 0 707 85 1003 289 95 65 244 193 334 284 l64 66 -79 86
c-43 48 -102 112 -130 143 l-52 57 -63 -61 c-143 -136 -291 -237 -419 -288
-139 -54 -182 -61 -385 -60 -182 0 -194 1 -280 29 -350 112 -524 420 -553 973
l-7 142 1024 0 1024 0 -6 163 c-9 249 -31 383 -98 606 -143 475 -444 756 -919
856 -109 23 -154 27 -345 30 -121 2 -233 1 -250 -1z m341 -366 c64 -30 132
-89 173 -150 83 -125 142 -369 157 -660 l7 -128 -547 0 -548 0 6 28 c3 15 8
61 11 102 10 107 42 270 74 375 78 251 219 416 391 456 19 4 78 6 130 4 74 -2
106 -8 146 -27z"/>
<path d="M29375 10430 c-277 -22 -691 -136 -1059 -292 -78 -32 -165 -69 -193
-81 l-53 -22 0 -292 0 -293 315 0 c302 0 315 1 315 19 0 35 50 213 80 285 101
242 265 346 522 333 94 -5 115 -10 180 -40 139 -65 210 -173 265 -402 10 -41
16 -148 20 -341 l5 -281 -98 -7 c-205 -15 -531 -66 -724 -112 -390 -95 -652
-223 -835 -408 -93 -94 -140 -162 -181 -264 -88 -219 -68 -533 47 -729 19 -32
73 -97 120 -144 71 -71 103 -94 182 -133 146 -73 250 -97 442 -103 246 -8 403
23 611 121 139 66 257 148 424 297 63 56 78 65 98 58 15 -6 22 -16 22 -36 0
-26 -16 -264 -24 -350 l-4 -43 609 0 609 0 0 108 0 108 -72 18 c-139 35 -216
95 -242 188 -35 119 -38 194 -42 1053 -2 509 -9 903 -15 965 -60 582 -383 834
-1064 828 -93 0 -210 -4 -260 -8z m393 -2067 l-4 -338 -26 -63 c-75 -176 -249
-328 -417 -363 -87 -18 -245 -7 -315 22 -82 34 -156 110 -187 191 -21 55 -24
79 -24 198 1 161 23 245 92 351 132 205 427 326 821 337 l64 2 -4 -337z"/>
<path d="M40775 10429 c-386 -49 -679 -181 -905 -408 -199 -200 -327 -450
-395 -766 -38 -182 -48 -317 -42 -570 9 -338 50 -553 150 -780 196 -447 557
-697 1111 -770 160 -21 517 -16 666 10 700 120 1112 539 1231 1250 26 158 37
537 19 697 -46 419 -171 718 -398 946 -212 215 -494 340 -872 388 -125 15
-450 17 -565 3z m438 -367 c229 -113 356 -409 407 -947 5 -60 10 -234 10 -385
0 -504 -49 -807 -164 -1010 -53 -93 -147 -186 -226 -224 -63 -30 -69 -31 -200
-31 -133 0 -136 0 -204 34 -228 111 -359 415 -406 941 -13 150 -13 623 0 770
35 382 115 624 251 760 95 95 196 131 354 127 102 -2 115 -4 178 -35z"/>
<path d="M45270 10424 c-156 -28 -313 -92 -451 -183 -90 -60 -247 -197 -308
-269 -40 -49 -72 -64 -86 -43 -3 5 4 105 15 223 11 117 20 228 20 246 l0 32
-107 0 c-60 0 -352 -7 -650 -17 l-543 -17 0 -112 0 -111 58 -12 c70 -15 159
-54 191 -84 36 -34 68 -89 88 -153 17 -55 18 -124 18 -1134 0 -1073 0 -1075
-22 -1147 -38 -129 -108 -201 -229 -240 l-54 -17 0 -108 0 -108 800 0 800 0 0
108 0 108 -67 17 c-168 43 -235 131 -265 348 -8 58 -12 321 -12 854 0 857 -1
847 68 990 60 125 189 240 314 281 71 22 180 16 241 -15 87 -45 171 -161 216
-298 l17 -53 294 0 294 0 -2 448 -3 447 -120 17 c-146 20 -409 22 -515 2z"/>
</g>
</svg>
